<svg width="34" height="34" viewBox="0 0 34 34" fill="none" xmlns="http://www.w3.org/2000/svg">
<path d="M11.332 2.83203V7.08203" stroke="#45A1F5" stroke-width="2" stroke-miterlimit="10" stroke-linecap="round" stroke-linejoin="round"/>
<path d="M22.668 2.83203V7.08203" stroke="#45A1F5" stroke-width="2" stroke-miterlimit="10" stroke-linecap="round" stroke-linejoin="round"/>
<path d="M4.95703 12.8789H29.0404" stroke="#45A1F5" stroke-width="2" stroke-miterlimit="10" stroke-linecap="round" stroke-linejoin="round"/>
<path d="M27.2143 22.3391L22.1993 27.3541C22.001 27.5525 21.8168 27.9208 21.7743 28.1899L21.5051 30.1025C21.406 30.7966 21.8876 31.2783 22.5818 31.1791L24.4943 30.91C24.7635 30.8675 25.146 30.6833 25.3301 30.4849L30.3452 25.47C31.2093 24.6058 31.6202 23.6 30.3452 22.325C29.0843 21.0641 28.0785 21.4749 27.2143 22.3391Z" stroke="#45A1F5" stroke-width="2" stroke-miterlimit="10" stroke-linecap="round" stroke-linejoin="round"/>
<path d="M26.4922 23.0625C26.9172 24.5925 28.1072 25.7825 29.6372 26.2075" stroke="#45A1F5" stroke-width="2" stroke-miterlimit="10" stroke-linecap="round" stroke-linejoin="round"/>
<path d="M17 31.1654H11.3333C6.375 31.1654 4.25 28.332 4.25 24.082V12.0404C4.25 7.79036 6.375 4.95703 11.3333 4.95703H22.6667C27.625 4.95703 29.75 7.79036 29.75 12.0404V16.9987" stroke="#45A1F5" stroke-width="2" stroke-miterlimit="10" stroke-linecap="round" stroke-linejoin="round"/>
<path d="M16.9935 19.4076H17.0062" stroke="#45A1F5" stroke-width="2" stroke-linecap="round" stroke-linejoin="round"/>
<path d="M11.7513 19.4076H11.7641" stroke="#45A1F5" stroke-width="2" stroke-linecap="round" stroke-linejoin="round"/>
<path d="M11.7513 23.6576H11.7641" stroke="#45A1F5" stroke-width="2" stroke-linecap="round" stroke-linejoin="round"/>
</svg>
