<svg width="34" height="34" viewBox="0 0 34 34" fill="none" xmlns="http://www.w3.org/2000/svg">
<path d="M12.2852 20.3009C12.2852 22.1284 13.6877 23.6018 15.4302 23.6018H18.986C20.5018 23.6018 21.7343 22.3126 21.7343 20.7259C21.7343 18.9976 20.9835 18.3884 19.8643 17.9918L14.1552 16.0084C13.036 15.6118 12.2852 15.0026 12.2852 13.2743C12.2852 11.6876 13.5177 10.3984 15.0335 10.3984H18.5893C20.3318 10.3984 21.7343 11.8718 21.7343 13.6993" stroke="#45A1F5" stroke-width="2" stroke-linecap="round" stroke-linejoin="round"/>
<path d="M17 8.5V25.5" stroke="#45A1F5" stroke-width="2" stroke-linecap="round" stroke-linejoin="round"/>
<path d="M21.2487 31.1654H12.7487C5.66536 31.1654 2.83203 28.332 2.83203 21.2487V12.7487C2.83203 5.66536 5.66536 2.83203 12.7487 2.83203H21.2487C28.332 2.83203 31.1654 5.66536 31.1654 12.7487V21.2487C31.1654 28.332 28.332 31.1654 21.2487 31.1654Z" stroke="#45A1F5" stroke-width="2" stroke-linecap="round" stroke-linejoin="round"/>
</svg>
