<svg width="34" height="34" viewBox="0 0 34 34" fill="none" xmlns="http://www.w3.org/2000/svg">
<path d="M16.6687 31.0014C24.5844 31.0014 31.0014 24.5844 31.0014 16.6687C31.0014 8.75292 24.5844 2.33594 16.6687 2.33594C8.75292 2.33594 2.33594 8.75292 2.33594 16.6687C2.33594 24.5844 8.75292 31.0014 16.6687 31.0014Z" stroke="#45A1F5" stroke-width="2" stroke-miterlimit="10" stroke-linecap="round" stroke-linejoin="round"/>
<path d="M8.6875 13.9748C8.6875 12.6555 9.75701 11.5859 11.0763 11.5859C12.3956 11.5859 13.4651 12.6555 13.4651 13.9748" stroke="#45A1F5" stroke-width="2" stroke-miterlimit="10" stroke-linecap="round" stroke-linejoin="round"/>
<path d="M24.6487 13.9748C24.6487 12.6555 23.5792 11.5859 22.2599 11.5859C20.9406 11.5859 19.8711 12.6555 19.8711 13.9748" stroke="#45A1F5" stroke-width="2" stroke-miterlimit="10" stroke-linecap="round" stroke-linejoin="round"/>
<path d="M20.8452 21.75C18.5364 24.935 14.7932 24.935 12.4844 21.75" stroke="#45A1F5" stroke-width="2" stroke-miterlimit="10" stroke-linecap="round" stroke-linejoin="round"/>
</svg>
