<svg width="34" height="34" viewBox="0 0 34 34" fill="none" xmlns="http://www.w3.org/2000/svg">
<g clip-path="url(#clip0_1282_1961)">
<path d="M23.248 3.11719C20.8706 3.11719 18.6926 3.96845 17 5.38164C15.3074 3.96845 13.1294 3.11719 10.752 3.11719C5.3639 3.11719 0.996094 7.48506 0.996094 12.8731C0.996094 15.1729 1.84888 17.2429 3.12309 18.9546C5.53821 22.199 17 30.6428 17 30.6428C17 30.6428 28.4618 22.199 30.8769 18.9545C32.1511 17.2429 33.0039 15.1728 33.0039 12.8731C33.0039 7.48506 28.6361 3.11719 23.248 3.11719Z" stroke="#45A1F5" stroke-width="2" stroke-miterlimit="10"/>
<path d="M9.82762 16.1552C12.0214 16.1552 13.7998 14.3769 13.7998 12.1831C13.7998 9.98933 12.0214 8.21094 9.82762 8.21094C7.63386 8.21094 5.85547 9.98933 5.85547 12.1831C5.85547 14.3769 7.63386 16.1552 9.82762 16.1552Z" stroke="#45A1F5" stroke-width="2" stroke-miterlimit="10"/>
<path d="M14.7474 20.1874C14.289 17.8886 12.26 16.1562 9.82652 16.1562C7.05518 16.1562 4.80859 18.4028 4.80859 21.1742" stroke="#45A1F5" stroke-width="2" stroke-miterlimit="10"/>
<path d="M24.1753 16.1552C26.369 16.1552 28.1474 14.3769 28.1474 12.1831C28.1474 9.98933 26.369 8.21094 24.1753 8.21094C21.9815 8.21094 20.2031 9.98933 20.2031 12.1831C20.2031 14.3769 21.9815 16.1552 24.1753 16.1552Z" stroke="#45A1F5" stroke-width="2" stroke-miterlimit="10"/>
<path d="M19.2539 20.1874C19.7123 17.8887 21.7413 16.1562 24.1748 16.1562C26.9461 16.1562 29.1927 18.4028 29.1927 21.1742" stroke="#45A1F5" stroke-width="2" stroke-miterlimit="10"/>
<path d="M16.9995 19.6513C19.1933 19.6513 20.9717 17.8729 20.9717 15.6792C20.9717 13.4854 19.1933 11.707 16.9995 11.707C14.8057 11.707 13.0273 13.4854 13.0273 15.6792C13.0273 17.8729 14.8057 19.6513 16.9995 19.6513Z" stroke="#45A1F5" stroke-width="2" stroke-miterlimit="10"/>
<path d="M22.0163 26.851V24.6703C22.0163 21.8989 19.7697 19.6523 16.9984 19.6523C14.2271 19.6523 11.9805 21.8989 11.9805 24.6703V26.851" stroke="#45A1F5" stroke-width="2" stroke-miterlimit="10"/>
</g>
<defs>
<clipPath id="clip0_1282_1961">
<rect width="34" height="34" fill="white"/>
</clipPath>
</defs>
</svg>
