<svg width="34" height="34" viewBox="0 0 34 34" fill="none" xmlns="http://www.w3.org/2000/svg">
<path d="M11.8711 16.9986L15.2853 20.427L22.1278 13.5703" stroke="#45A1F5" stroke-width="2" stroke-linecap="round" stroke-linejoin="round"/>
<path d="M15.2286 3.47063C16.2061 2.63479 17.8069 2.63479 18.7986 3.47063L21.0369 5.39729C21.4619 5.76562 22.2553 6.06313 22.8219 6.06313H25.2303C26.7319 6.06313 27.9644 7.29563 27.9644 8.79729V11.2056C27.9644 11.7581 28.2619 12.5656 28.6303 12.9906L30.5569 15.229C31.3928 16.2065 31.3928 17.8073 30.5569 18.799L28.6303 21.0373C28.2619 21.4623 27.9644 22.2556 27.9644 22.8223V25.2306C27.9644 26.7323 26.7319 27.9648 25.2303 27.9648H22.8219C22.2694 27.9648 21.4619 28.2623 21.0369 28.6306L18.7986 30.5573C17.8211 31.3931 16.2203 31.3931 15.2286 30.5573L12.9903 28.6306C12.5653 28.2623 11.7719 27.9648 11.2053 27.9648H8.75443C7.25276 27.9648 6.02026 26.7323 6.02026 25.2306V22.8081C6.02026 22.2556 5.72276 21.4623 5.36859 21.0373L3.45609 18.7848C2.63443 17.8073 2.63443 16.2206 3.45609 15.2431L5.36859 12.9906C5.72276 12.5656 6.02026 11.7723 6.02026 11.2198V8.78312C6.02026 7.28146 7.25276 6.04896 8.75443 6.04896H11.2053C11.7578 6.04896 12.5653 5.75146 12.9903 5.38313L15.2286 3.47063Z" stroke="#45A1F5" stroke-width="2" stroke-linecap="round" stroke-linejoin="round"/>
</svg>
