<svg width="34" height="34" viewBox="0 0 34 34" fill="none" xmlns="http://www.w3.org/2000/svg">
<mask id="mask0_1282_1861" style="mask-type:luminance" maskUnits="userSpaceOnUse" x="1" y="1" width="32" height="32">
<path d="M32 32V2H2V32H32Z" fill="white" stroke="white" stroke-width="2"/>
</mask>
<g mask="url(#mask0_1282_1861)">
<path d="M21.9841 23.304L25.2473 19.9242C26.0462 19.0969 26.0293 17.7803 25.2095 16.9736C24.3871 16.1642 23.0652 16.1716 22.2518 16.9901L17 22.2746V32.0625H26.2014L25.6875 29.0625L31.4407 20.6077C31.8476 19.9251 32.0625 19.1451 32.0625 18.3504V9.00125C32.0625 7.88744 31.1596 6.98456 30.0458 6.98456C28.9319 6.98456 28.029 7.88744 28.029 9.00125V17.0437L21.8948 23.3881" stroke="#45A1F5" stroke-width="2" stroke-miterlimit="10"/>
<path d="M12.0159 23.304L8.75275 19.9242C7.95381 19.0969 7.97069 17.7803 8.7905 16.9736C9.61294 16.1642 10.9348 16.1716 11.7483 16.9901L17 22.2746V32.0625H7.79863L8.3125 29.0625L2.55931 20.6077C2.15238 19.9251 1.9375 19.1451 1.9375 18.3504V9.00125C1.9375 7.88744 2.84044 6.98456 3.95425 6.98456C5.06806 6.98456 5.971 7.88744 5.971 9.00125V17.0437L12.1053 23.3881" stroke="#45A1F5" stroke-width="2" stroke-miterlimit="10"/>
<path d="M19.7219 1.93553C18.6353 1.93553 17.6613 2.41478 16.9976 3.17272C16.3339 2.41478 15.3598 1.93553 14.2732 1.93553C12.2735 1.93553 10.6523 3.55666 10.6523 5.55641C10.6523 7.55216 12.3485 9.89778 16.9976 12.8086C21.6466 9.89778 23.3428 7.55216 23.3428 5.55641C23.3428 3.55666 21.7217 1.93553 19.7219 1.93553Z" stroke="#45A1F5" stroke-width="2" stroke-miterlimit="10"/>
</g>
</svg>
