<svg width="34" height="34" viewBox="0 0 34 34" fill="none" xmlns="http://www.w3.org/2000/svg">
<path d="M20.6104 2.83203H13.3854C10.8354 2.83203 10.2688 4.10705 9.94293 5.67955L8.78125 11.2329H25.2146L24.0529 5.67955C23.7271 4.10705 23.1604 2.83203 20.6104 2.83203Z" stroke="#45A1F5" stroke-width="2" stroke-linecap="round" stroke-linejoin="round"/>
<path d="M27.2553 20.2855C27.3687 21.4896 26.4053 22.5238 25.1728 22.5238H23.2462C22.1412 22.5238 21.9853 22.0563 21.787 21.4613L21.5745 20.8521C21.2911 20.0162 21.107 19.4496 19.6195 19.4496H14.3637C12.8903 19.4496 12.6636 20.0871 12.4086 20.8521L12.1962 21.4613C11.9978 22.0421 11.842 22.5238 10.737 22.5238H8.81032C7.57782 22.5238 6.61449 21.4896 6.72782 20.2855L7.30866 14.0238C7.45032 12.4796 7.74781 11.2188 10.4395 11.2188H23.5436C26.2353 11.2188 26.5328 12.4796 26.6745 14.0238L27.2553 20.2855Z" stroke="#45A1F5" stroke-width="2" stroke-linecap="round" stroke-linejoin="round"/>
<path d="M8.78025 8.14453H7.74609" stroke="#45A1F5" stroke-width="2" stroke-linecap="round" stroke-linejoin="round"/>
<path d="M26.249 8.14453H25.2148" stroke="#45A1F5" stroke-width="2" stroke-linecap="round" stroke-linejoin="round"/>
<path d="M10.8359 15.3398H13.9101" stroke="#45A1F5" stroke-width="2" stroke-linecap="round" stroke-linejoin="round"/>
<path d="M20.0859 15.3398H23.1601" stroke="#45A1F5" stroke-width="2" stroke-linecap="round" stroke-linejoin="round"/>
<path d="M17 24.082V25.4987" stroke="#45A1F5" stroke-width="2" stroke-linecap="round" stroke-linejoin="round"/>
<path d="M17 29.75V31.1667" stroke="#45A1F5" stroke-width="2" stroke-linecap="round" stroke-linejoin="round"/>
<path d="M4.2487 25.5L2.83203 31.1667" stroke="#45A1F5" stroke-width="2" stroke-linecap="round" stroke-linejoin="round"/>
<path d="M29.75 25.5L31.1667 31.1667" stroke="#45A1F5" stroke-width="2" stroke-linecap="round" stroke-linejoin="round"/>
</svg>
