<svg width="34" height="34" viewBox="0 0 34 34" fill="none" xmlns="http://www.w3.org/2000/svg">
<path d="M17.8486 25.6711L17.0185 26.5012L16.1883 25.6711C10.406 19.8887 10.406 10.5136 16.1883 4.73119L16.8497 4.06987C16.9428 3.97671 17.094 3.97671 17.1872 4.06987L17.8485 4.73119C23.631 10.5137 23.631 19.8887 17.8486 25.6711Z" stroke="#45A1F5" stroke-width="2" stroke-miterlimit="10" stroke-linecap="round" stroke-linejoin="round"/>
<path d="M22.3392 14.5824C23.7718 13.2983 25.4375 12.2695 27.2634 11.5658C28.8445 10.9572 30.5441 10.592 32.3211 10.5162C32.7012 10.4999 33.0144 10.8146 32.998 11.1962C32.8214 15.338 31.0696 19.073 28.3262 21.8164C25.4388 24.7053 21.4515 26.4942 17.0469 26.5045" stroke="#45A1F5" stroke-width="2" stroke-miterlimit="10" stroke-linecap="round" stroke-linejoin="round"/>
<path d="M26.6116 23.2969C28.7296 23.5998 30.7789 24.5025 32.484 26.0062C32.782 26.269 32.7827 26.7297 32.4847 26.9926C30.3494 28.8758 27.6739 29.8173 24.9991 29.8173C22.1029 29.8173 19.2066 28.7143 16.9954 26.5069C16.9928 26.5043 16.9909 26.5024 16.9883 26.4998C16.9909 26.4972 16.9928 26.4953 16.9954 26.4927" stroke="#45A1F5" stroke-width="2" stroke-miterlimit="10" stroke-linecap="round" stroke-linejoin="round"/>
<path d="M17.0015 26.4927C17.0041 26.4953 17.006 26.4972 17.0086 26.4998C17.006 26.5024 17.0041 26.5043 17.0015 26.5069C14.7902 28.7142 11.894 29.8173 8.9978 29.8173C6.32297 29.8173 3.64746 28.876 1.51219 26.9925C1.21423 26.7297 1.21491 26.269 1.51288 26.0062C3.21748 24.503 5.26669 23.5996 7.38472 23.2969" stroke="#45A1F5" stroke-width="2" stroke-miterlimit="10" stroke-linecap="round" stroke-linejoin="round"/>
<path d="M11.6921 14.6106C10.2521 13.3131 8.5746 12.2739 6.73525 11.5658C5.15418 10.9572 3.4545 10.592 1.67753 10.5162C1.29749 10.4999 0.9842 10.8146 1.00062 11.1962C1.17723 15.338 2.92903 19.073 5.6724 21.8164C8.55983 24.7053 12.5472 26.4942 16.9518 26.5045" stroke="#45A1F5" stroke-width="2" stroke-miterlimit="10" stroke-linecap="round" stroke-linejoin="round"/>
</svg>
