<svg width="32" height="32" viewBox="0 0 32 32" fill="none" xmlns="http://www.w3.org/2000/svg">
<path d="M16.8353 28.3346C24.1036 28.3346 30.0026 22.4357 30.0026 15.1673C30.0026 7.89896 24.1036 2 16.8353 2C9.56693 2 3.66797 7.89896 3.66797 15.1673" stroke="#45A1F5" stroke-width="2" stroke-linecap="round" stroke-linejoin="round"/>
<path d="M21.7199 19.3571L17.6381 16.9212C16.927 16.4998 16.3477 15.486 16.3477 14.6564V9.25781" stroke="#45A1F5" stroke-width="2" stroke-linecap="round" stroke-linejoin="round"/>
<path d="M14 24C14 25.125 13.685 26.19 13.13 27.09C12.095 28.83 10.19 30 8 30C6.485 30 5.105 29.445 4.055 28.5C3.59 28.11 3.185 27.63 2.87 27.09C2.315 26.19 2 25.125 2 24C2 20.685 4.685 18 8 18C9.8 18 11.405 18.795 12.5 20.04C13.43 21.105 14 22.485 14 24Z" stroke="#45A1F5" stroke-width="2" stroke-miterlimit="10" stroke-linecap="round" stroke-linejoin="round"/>
<path d="M5.92188 24.002L7.24187 25.322L10.0819 22.6953" stroke="#45A1F5" stroke-width="2" stroke-linecap="round" stroke-linejoin="round"/>
</svg>
