<svg width="64" height="64" viewBox="0 0 64 64" fill="none" xmlns="http://www.w3.org/2000/svg">
<g clip-path="url(#clip0_1282_2055)">
<mask id="mask0_1282_2055" style="mask-type:luminance" maskUnits="userSpaceOnUse" x="0" y="0" width="64" height="64">
<path d="M63 63V1H1V63H63Z" fill="white" stroke="white" stroke-width="2"/>
</mask>
<g mask="url(#mask0_1282_2055)">
<path d="M22.1477 22.1496L13.7505 30.5469L5.35325 22.1496C3.20425 20.0006 1.875 17.0316 1.875 13.7523C1.875 7.19375 7.19188 1.87675 13.7505 1.87675C20.3092 1.87675 25.626 7.19375 25.626 13.7523C25.626 17.0316 24.2967 20.0006 22.1477 22.1496Z" stroke="#45C75A" stroke-width="2" stroke-miterlimit="10"/>
<path d="M9.375 13.7498C9.375 11.3334 11.3339 9.3745 13.7502 9.3745C16.1666 9.3745 18.1255 11.3334 18.1255 13.7498C18.1255 16.1661 16.1666 18.125 13.7502 18.125C11.3339 18.125 9.375 16.1661 9.375 13.7498Z" stroke="#45C75A" stroke-width="2" stroke-miterlimit="10"/>
<path d="M48.2548 55.6098C46.7203 54.0752 45.875 52.0346 45.875 49.8641C45.875 45.3836 49.5201 41.7386 54.0005 41.7386C58.4809 41.7386 62.126 45.3836 62.126 49.8641C62.126 52.0345 61.2808 54.0751 59.7461 55.6098L54.0005 61.3555L48.2548 55.6098Z" stroke="#45C75A" stroke-width="2" stroke-miterlimit="10"/>
<path d="M23.6256 30.545H30.9009C33.992 30.545 36.4979 33.0509 36.4979 36.142C36.4979 39.2333 33.992 41.7391 30.9009 41.7391H23.9429C18.3135 41.7391 13.75 46.3026 13.75 51.932V51.9321C13.75 57.5615 18.3135 62.125 23.9429 62.125H44.8746" stroke="#45C75A" stroke-width="2" stroke-miterlimit="10" stroke-linecap="round"/>
</g>
</g>
<defs>
<clipPath id="clip0_1282_2055">
<rect width="64" height="64" fill="white"/>
</clipPath>
</defs>
</svg>
