<svg width="64" height="64" viewBox="0 0 64 64" fill="none" xmlns="http://www.w3.org/2000/svg">
<path d="M21.5821 37.661C22.8542 36.6486 23.0597 34.7834 22.0463 33.5161C21.0293 32.2454 19.1621 32.04 17.8936 33.0524L13.2129 36.7939C11.9408 37.8061 11.7354 39.6751 12.7487 40.9423C13.7621 42.2095 15.6329 42.4184 16.9014 41.4025" stroke="#45C75A" stroke-width="2" stroke-miterlimit="10" stroke-linecap="round" stroke-linejoin="round"/>
<path d="M20.5918 46.0108C19.3198 47.0267 19.1143 48.8922 20.1277 50.1593C21.141 51.4301 23.0118 51.6353 24.2804 50.623L28.961 46.8816C30.233 45.8692 30.4385 44.0003 29.4252 42.7331C28.4083 41.466 26.541 41.2571 25.2724 42.273" stroke="#45C75A" stroke-width="2" stroke-miterlimit="10" stroke-linecap="round" stroke-linejoin="round"/>
<path d="M24.2815 50.622C23.013 51.6344 22.804 53.5034 23.8207 54.7705C24.8342 56.0376 26.7015 56.2465 27.9735 55.2306L30.592 53.1351C31.8605 52.1229 32.0696 50.2574 31.0561 48.9902C30.0393 47.7195 28.172 47.5142 26.9035 48.5265" stroke="#45C75A" stroke-width="2" stroke-miterlimit="10" stroke-linecap="round" stroke-linejoin="round"/>
<path d="M43.7532 38.7268L47.0981 41.3993C48.3665 42.4152 48.5756 44.2807 47.5623 45.5478C46.5453 46.815 44.6779 47.0238 43.4095 46.008L39.7812 43.1126" stroke="#45C75A" stroke-width="2" stroke-miterlimit="10" stroke-linecap="round" stroke-linejoin="round"/>
<path d="M39.7824 43.1154L43.4106 46.0108C44.6791 47.0267 44.8882 48.8922 43.8712 50.1594C42.8579 51.43 40.9871 51.6353 39.7185 50.623L36.0938 47.724" stroke="#45C75A" stroke-width="2" stroke-miterlimit="10" stroke-linecap="round" stroke-linejoin="round"/>
<path d="M36.0922 47.7232L37.9029 49.1709C39.1714 50.1867 39.3805 52.0522 38.367 53.3195C37.3501 54.5902 35.4829 54.7955 34.2144 53.7831L31.5781 51.677" stroke="#45C75A" stroke-width="2" stroke-miterlimit="10" stroke-linecap="round" stroke-linejoin="round"/>
<path d="M60.3388 27.0817L62.5108 30.9187C63.0139 31.8107 62.6985 32.9611 61.8022 33.4567L58.4538 35.3115C57.5573 35.8071 56.4163 35.4956 55.9133 34.6071L46.2613 17.5354C45.7547 16.6432 46.07 15.4964 46.9664 15.001L50.3184 13.1461C51.2148 12.6506 52.3522 12.9586 52.8554 13.8505L60.3388 27.0817Z" stroke="#45C75A" stroke-width="2" stroke-miterlimit="10" stroke-linecap="round" stroke-linejoin="round"/>
<path d="M50.5508 36.6016C51.3409 34.8956 53.063 33.6318 55.0402 33.0654" stroke="#45C75A" stroke-width="2" stroke-miterlimit="10" stroke-linecap="round" stroke-linejoin="round"/>
<path d="M47.0993 41.4025C48.3676 42.4184 50.2385 42.2095 51.252 40.9423C52.2688 39.6753 52.0599 37.8061 50.7913 36.7939L46.7343 33.5515C44.7641 31.9799 42.539 30.2384 40.4273 28.7234C36.6075 25.9873 34.7261 24.1679 29.9391 25.1306C26.3214 25.8599 23.3946 24.7554 22.6329 21.6229C22.1439 19.6088 23.8588 18.6708 27.2569 18.3699L32.6781 17.8849C33.7481 17.7894 34.3859 17.6904 36.1185 18.2956L39.389 19.4389C41.6 20.2105 41.3024 20.4158 43.6019 19.7504L46.9611 18.777" stroke="#45C75A" stroke-width="2" stroke-miterlimit="10" stroke-linecap="round" stroke-linejoin="round"/>
<path d="M17.0326 15.001L13.6842 13.1461C12.7878 12.6506 11.6468 12.9586 11.1437 13.8506L1.49183 30.9188C0.985076 31.8108 1.30058 32.9612 2.19683 33.4567L5.54532 35.3115C6.4417 35.8071 7.5827 35.4956 8.08583 34.6072L17.7378 17.5353C18.2443 16.6433 17.9291 15.4965 17.0326 15.001Z" stroke="#45C75A" stroke-width="2" stroke-miterlimit="10" stroke-linecap="round" stroke-linejoin="round"/>
<path d="M22.6417 20.3789L17.0469 18.7578" stroke="#45C75A" stroke-width="2" stroke-miterlimit="10" stroke-linecap="round" stroke-linejoin="round"/>
<path d="M13.4499 36.6016C12.6562 34.8956 10.9342 33.6318 8.95703 33.0654" stroke="#45C75A" stroke-width="2" stroke-miterlimit="10" stroke-linecap="round" stroke-linejoin="round"/>
<path d="M16.9025 41.3993L23.6454 36.012C24.9139 34.9997 26.7847 35.2085 27.7981 36.4756C28.8115 37.7428 28.606 39.6083 27.334 40.6242L20.5946 46.008C19.3226 47.0238 17.4554 46.815 16.4419 45.5478C15.425 44.2807 15.6341 42.4152 16.9025 41.3993Z" stroke="#45C75A" stroke-width="2" stroke-miterlimit="10" stroke-linecap="round" stroke-linejoin="round"/>
</svg>
