<svg width="64" height="64" viewBox="0 0 64 64" fill="none" xmlns="http://www.w3.org/2000/svg">
<g clip-path="url(#clip0_1282_2045)">
<path d="M43.295 1.88281H41.4127V9.41222H39.5303C37.4512 9.41222 35.7656 11.0978 35.7656 13.1769C35.7656 15.2561 37.4512 16.9416 39.5303 16.9416H41.4127V22.5887H48.9421V24.471C48.9421 26.5502 50.6277 28.2358 52.7068 28.2358C54.7859 28.2358 56.4715 26.5502 56.4715 24.471V22.5887H62.1186V20.7063C62.1186 10.3104 53.691 1.88281 43.295 1.88281Z" stroke="#2C4FA3" stroke-width="2" stroke-miterlimit="10"/>
<path d="M1.88281 35.767H11.2946V33.8847C11.2946 31.8053 12.9799 30.1199 15.0593 30.1199C16.0983 30.1199 17.0395 30.5415 17.7209 31.223C18.4023 31.9045 18.824 32.8456 18.824 33.8847V35.767H28.2358M1.88281 35.767C1.88281 50.3214 13.6814 62.1199 28.2358 62.1199M1.88281 35.767C1.88281 21.2127 13.6814 9.41406 28.2358 9.41406V16.9435H26.3534C25.3143 16.9435 24.3732 17.365 23.6918 18.0465C23.0103 18.7281 22.5887 19.6692 22.5887 20.7082C22.5887 22.7876 24.274 24.4729 26.3534 24.4729H28.2358V35.767M28.2358 35.767H37.6475V37.6494C37.6475 39.7287 39.3329 41.4141 41.4122 41.4141C43.4916 41.4141 45.1769 39.7287 45.1769 37.6494V35.767H54.5887C54.5887 50.3214 42.7901 62.1199 28.2358 62.1199M28.2358 35.767V45.1788H30.1181C31.1572 45.1788 32.0983 45.6004 32.7798 46.2818C33.4612 46.9632 33.8828 47.9044 33.8828 48.9435C33.8828 51.0228 32.1975 52.7082 30.1181 52.7082H28.2358V62.1199" stroke="#2C4FA3" stroke-width="2" stroke-miterlimit="10"/>
</g>
<defs>
<clipPath id="clip0_1282_2045">
<rect width="64" height="64" fill="white"/>
</clipPath>
</defs>
</svg>
