<svg width="64" height="64" viewBox="0 0 64 64" fill="none" xmlns="http://www.w3.org/2000/svg">
<mask id="mask0_1282_1981" style="mask-type:luminance" maskUnits="userSpaceOnUse" x="0" y="0" width="64" height="64">
<path d="M0 3.8147e-06H64V64H0V3.8147e-06Z" fill="white"/>
</mask>
<g mask="url(#mask0_1282_1981)">
<path d="M40.1328 38.2102C42.7563 38.5507 48.0856 39.3598 50.9049 40.6151C54.0015 41.9938 55.9967 45.0662 55.9967 48.456V57.6367" stroke="#45A1F5" stroke-width="2" stroke-miterlimit="10" stroke-linecap="round" stroke-linejoin="round"/>
<path d="M16.5625 62.4297V56.0752" stroke="#45A1F5" stroke-width="2" stroke-miterlimit="10" stroke-linecap="round" stroke-linejoin="round"/>
<path d="M48.3008 62.4297V56.0752" stroke="#45A1F5" stroke-width="2" stroke-miterlimit="10" stroke-linecap="round" stroke-linejoin="round"/>
<path d="M19.8359 14.4609V17.3562C19.8359 17.3562 23.0149 17.3185 24.0902 18.3788C24.3163 18.6018 24.6981 18.4445 24.6981 18.1271V13.1609C24.6981 11.4366 26.096 10.0387 27.8203 10.0387H27.8579C28.3745 10.0387 28.8852 10.1184 29.3737 10.2723C30.3028 10.565 31.2651 10.7404 32.2392 10.7404H32.625C33.5992 10.7404 34.5614 10.565 35.4905 10.2723C35.979 10.1184 36.4898 10.0387 37.0065 10.0387H37.0439C38.7682 10.0387 40.1661 11.4366 40.1661 13.1609V17.7673C40.1661 18.2324 40.5431 18.6094 41.0082 18.6094H41.0117C41.7254 18.6094 42.419 18.4019 43.0345 18.0406C43.9977 17.4753 45.0283 17.3562 45.0283 17.3562V11.2336C45.0283 6.62942 41.2959 2.89714 36.6917 2.89714H28.0942C26.5247 2.89714 25.1908 3.90322 24.701 5.30558C24.5174 5.8312 24.0157 6.17877 23.4588 6.17877C21.458 6.17877 19.8359 7.80081 19.8359 9.80181" stroke="#45A1F5" stroke-width="2" stroke-miterlimit="10" stroke-linecap="round" stroke-linejoin="round"/>
<path d="M19.8388 17.3616C19.204 17.6913 18.7695 18.3535 18.7695 19.1183V21.3119C18.7695 22.4051 19.6559 23.2915 20.7493 23.2915H21.4978C21.5595 26.1645 22.7668 28.9297 24.9479 30.8078C26.7038 32.3196 29.1721 33.6393 32.4326 33.6758C35.6929 33.6393 38.1613 32.3196 39.9171 30.8078C42.0981 28.9297 43.3055 26.1645 43.3672 23.2915H44.1159C45.209 23.2915 46.0954 22.4051 46.0954 21.3119V19.1183C46.0954 18.3538 45.6613 17.6916 45.0268 17.3619" stroke="#45A1F5" stroke-width="2" stroke-miterlimit="10" stroke-linecap="round" stroke-linejoin="round"/>
<path d="M26.2686 31.7966V36.4576C26.2686 37.3446 25.6101 38.0929 24.7305 38.207" stroke="#45A1F5" stroke-width="2" stroke-miterlimit="10" stroke-linecap="round" stroke-linejoin="round"/>
<path d="M40.1318 38.207C39.2521 38.0929 38.5938 37.3446 38.5938 36.4576V31.7967" stroke="#45A1F5" stroke-width="2" stroke-miterlimit="10" stroke-linecap="round" stroke-linejoin="round"/>
<path d="M55.9992 54.9211V58.2466C55.9992 60.5569 54.1263 62.4297 51.8161 62.4297H13.0501C10.7399 62.4297 8.86719 60.5569 8.86719 58.2466V48.455C8.86719 45.0652 10.8623 41.993 13.9589 40.6142C16.7782 39.359 22.1074 38.5497 24.7309 38.2094L32.4332 43.0267L40.1353 38.2094" stroke="#45A1F5" stroke-width="2" stroke-miterlimit="10" stroke-linecap="round" stroke-linejoin="round"/>
</g>
</svg>
