<svg width="30" height="30" viewBox="0 0 30 30" fill="none" xmlns="http://www.w3.org/2000/svg">
<g clip-path="url(#clip0_57_112)">
<rect width="30" height="30" rx="4" fill="#0E1121"/>
<path fill-rule="evenodd" clip-rule="evenodd" d="M100 0H0V100H100V0ZM6.89844 8.07266C6.89844 7.42452 7.44105 6.89844 8.10992 6.89844H22.0792C22.7483 6.89844 23.2906 7.42452 23.2906 8.07266V22.1166C23.2906 22.7649 22.7483 23.2906 22.0792 23.2906H8.10992C7.44111 23.2906 6.89844 22.765 6.89844 22.1168V8.07266ZM11.8797 20.6166V13.2368H9.4268V20.6166H11.8797ZM10.6538 12.2294C11.509 12.2294 12.0414 11.6627 12.0414 10.9545C12.0254 10.2301 11.509 9.67928 10.67 9.67928C9.83052 9.67928 9.28221 10.2301 9.28221 10.9544C9.28221 11.6626 9.81445 12.2293 10.6377 12.2293L10.6538 12.2294ZM13.2375 20.6166H15.6902V16.4958C15.6902 16.2755 15.7062 16.0547 15.771 15.8974C15.9483 15.4565 16.3519 15.0002 17.0296 15.0002C17.917 15.0002 18.2722 15.6768 18.2722 16.669V20.6166H20.7249V16.3852C20.7249 14.1186 19.5149 13.0638 17.9011 13.0638C16.6 13.0638 16.0165 13.7789 15.6904 14.2816V13.237H13.2376C13.2696 13.9293 13.2375 20.6166 13.2375 20.6166Z" fill="white"/>
</g>
<defs>
<clipPath id="clip0_57_112">
<rect width="30" height="30" rx="4" fill="white"/>
</clipPath>
</defs>
</svg>
