<svg width="190" height="32" viewBox="0 0 190 32" fill="none" xmlns="http://www.w3.org/2000/svg">
<path d="M50.2601 17.4934L47.4419 20.3927V24.9593H44.1445V7.11719H47.4419V16.2756L56.2206 7.11719H59.9216L52.4655 15.0905L60.3937 24.9629H56.5377L50.2601 17.4934Z" fill="white"/>
<path d="M85.615 22.1867V24.9665H72.2812V7.11719H85.2547V9.89697H75.5967V14.5396H84.1699V17.265H75.5967V22.1904L85.615 22.1867Z" fill="white"/>
<path d="M110.422 24.9665L106.797 19.7368C106.57 19.7579 106.341 19.7664 106.112 19.7621H102.094V24.9665H98.7969V7.11719H106.098C110.765 7.11719 113.666 9.51644 113.666 13.4705C113.666 16.1742 112.296 18.182 109.889 19.1061L113.972 24.9738L110.422 24.9665ZM105.961 9.91508H102.105V17.0331H105.961C108.844 17.0331 110.347 15.7066 110.347 13.4632C110.347 11.2198 108.84 9.91508 105.95 9.91508H105.961Z" fill="white"/>
<path d="M126.938 7.11719H130.242V24.9738H126.945L126.938 7.11719Z" fill="white"/>
<path d="M143.352 16.0393C143.352 10.708 147.409 6.85547 152.862 6.85547C155.745 6.85547 158.242 7.89924 159.889 9.8382L157.759 11.8533C157.164 11.1835 156.432 10.6502 155.614 10.2894C154.796 9.92861 153.91 9.74879 153.017 9.76209C149.337 9.76209 146.674 12.3643 146.674 16.0393C146.674 19.7142 149.337 22.3128 153.017 22.3128C153.913 22.327 154.801 22.1451 155.62 21.7796C156.439 21.4141 157.169 20.8739 157.759 20.1963L159.889 22.2367C158.242 24.1756 155.756 25.2376 152.837 25.2376C147.409 25.2376 143.352 21.3705 143.352 16.0393Z" fill="white"/>
<path d="M170.875 16.0393C170.875 10.7588 174.933 6.85547 180.436 6.85547C185.939 6.85547 190 10.7334 190 16.0393C190 21.3451 185.942 25.2376 180.436 25.2376C174.929 25.2376 170.875 21.3198 170.875 16.0393ZM186.677 16.0393C186.677 12.3897 184.014 9.76209 180.436 9.76209C176.857 9.76209 174.208 12.3897 174.208 16.0393C174.208 19.6889 176.872 22.3128 180.446 22.3128C184.021 22.3128 186.677 19.6852 186.677 16.0393Z" fill="white"/>
<path d="M19.3555 0L5.85448 13.5756V18.3964L24.1492 0H19.3555ZM5.85448 10.6947L9.11832 7.41227V0H0V32L3.3683 28.6125V3.126H5.85448V10.6947Z" fill="white"/>
<path d="M9.955 17.1914L5.85547 21.3166V26.1375L9.955 22.0123L19.8858 31.9996H24.6794L9.98053 17.2171L9.955 17.1914Z" fill="#45A1F5"/>
<path d="M16.1999 15.7327L31.8435 0H27.0499L11.4062 15.7327L27.5815 32H32.3751L16.1999 15.7327Z" fill="#45A1F5"/>
</svg>
