<svg width="30" height="30" viewBox="0 0 30 30" fill="none" xmlns="http://www.w3.org/2000/svg">
<g clip-path="url(#clip0_57_107)">
<rect width="30" height="30" rx="4" fill="#0E1121"/>
<path fill-rule="evenodd" clip-rule="evenodd" d="M100 0H0V100H100V0ZM20.6416 11.0936C21.1299 11.0203 21.6067 10.8844 22.0602 10.6892C22.0961 10.6741 22.1112 10.6645 22.1176 10.6685C22.1222 10.6715 22.1222 10.6817 22.1222 10.7023C22.1263 10.7875 22.0984 10.8713 22.0439 10.9371C21.7295 11.3783 21.3527 11.7716 20.9253 12.1046C20.914 12.1129 20.9013 12.1214 20.8879 12.1303C20.8278 12.1704 20.7557 12.2185 20.7557 12.2905C20.7557 14.606 20.1622 16.9183 18.4728 18.5946C16.3236 20.7307 13.1015 21.3112 10.2381 20.522C9.68518 20.3638 9.15144 20.1451 8.64658 19.8697C8.47699 19.7784 8.31393 19.6838 8.15086 19.5762C8.11499 19.5436 8.08238 19.5077 8.11499 19.4914C8.1476 19.4751 8.17696 19.4718 8.30414 19.4914C9.11057 19.5631 9.92294 19.4585 10.6849 19.1849C10.719 19.1731 10.7564 19.1605 10.7964 19.147C11.2464 18.9952 12.0306 18.7306 12.2373 18.3532L12.2568 18.3337C12.1859 18.3179 12.1198 18.3117 12.0555 18.3056C12.0134 18.3016 11.972 18.2977 11.9307 18.2913C11.1676 18.0695 10.1272 17.6716 9.64779 16.3671C9.61844 16.2921 9.64779 16.2497 9.72606 16.266C10.0896 16.3153 10.4587 16.3042 10.8186 16.2334C10.6921 16.2083 10.5686 16.17 10.4501 16.1192C9.96383 15.9227 9.53852 15.6005 9.21763 15.1856C8.89675 14.7708 8.6918 14.2781 8.62375 13.7581C8.61451 13.6496 8.61451 13.5405 8.62375 13.4319C8.62701 13.3537 8.66289 13.3308 8.72811 13.3732C9.07542 13.5501 9.4547 13.6555 9.84347 13.6831C9.71954 13.5852 9.60214 13.4809 9.48799 13.3732C8.64006 12.5677 8.31067 10.9371 8.98901 9.9065C9.04446 9.82823 9.08033 9.82823 9.14882 9.9065C10.7077 11.6774 12.6156 12.5025 14.9409 12.8449C14.9996 12.8547 14.9996 12.8449 14.9996 12.7764C14.9311 12.3761 14.941 11.9663 15.0289 11.5698C15.1355 11.1529 15.3301 10.7637 15.5996 10.4283C15.8559 10.1025 16.1754 9.83179 16.5389 9.63255C16.908 9.44357 17.3121 9.33256 17.726 9.30642C18.1525 9.27941 18.5796 9.34966 18.9751 9.51188C19.268 9.64165 19.5387 9.81664 19.7773 10.0304C19.8295 10.0783 19.8786 10.1295 19.9241 10.1837C19.9392 10.1988 19.958 10.2095 19.9787 10.2147C19.9994 10.2198 20.0211 10.2193 20.0415 10.2131C20.6265 10.0671 21.1908 9.84793 21.7211 9.5608C21.7326 9.55452 21.7455 9.55123 21.7586 9.55123C21.7717 9.55123 21.7846 9.55452 21.7961 9.5608C21.8114 9.57176 21.8061 9.59007 21.801 9.60783C21.7985 9.61651 21.7961 9.62506 21.7961 9.63255C21.6974 9.93993 21.5426 10.2263 21.3395 10.4772C21.2058 10.6436 20.8699 11.0545 20.6416 11.0936Z" fill="white"/>
</g>
<defs>
<clipPath id="clip0_57_107">
<rect width="30" height="30" rx="4" fill="white"/>
</clipPath>
</defs>
</svg>
